<?xml version="1.0" encoding="UTF-8" standalone="no"?>
<svg width="512pt" xmlns="http://www.w3.org/2000/svg" viewBox="0 0 512 512" height="512pt">
 <path d="m256 0c-141.16 0-256 114.84-256 256s114.84 256 256 256 256-114.84 256-256-114.84-256-256-256z" fill="#2196f3"/>
 <path d="m385.75 201.75-138.67 138.66c-4.1602 4.1602-9.6211 6.2539-15.082 6.2539s-10.922-2.0938-15.082-6.2539l-69.332-69.332c-8.3438-8.3398-8.3438-21.824 0-30.164 8.3398-8.3438 21.82-8.3438 30.164 0l54.25 54.25 123.59-123.58c8.3398-8.3438 21.82-8.3438 30.164 0 8.3398 8.3398 8.3398 21.82 0 30.164z" fill="#fafafa"/>
</svg>
